inDegrees=no
num_controls=7
num_derivatives=13
num_iterations=162
num_multipliers=7
num_parameters=0
num_slacks=7
num_states=26
objective=5.885991
objective_accelerations=0.780420
objective_balance=0.011887
objective_effort=0.524104
objective_height=4.545754
objective_ligament=0.023825
solver_duration=1351.900665
status=Solve_Succeeded
success=true
DataType=double
version=3
OpenSimVersion=4.4-2022-07-23-0e9fedc
endheader
time	/jointset/ground_pelvis/pelvis_tilt/value	/jointset/ground_pelvis/pelvis_tx/value	/jointset/ground_pelvis/pelvis_ty/value	/jointset/hip_r/hip_flexion_r/value	/jointset/hip_r/hip_adduction_r/value	/jointset/hip_r/hip_rotation_r/value	/jointset/back/lumbar_extension/value	/jointset/patellofemoral_r/patellar_flexion_r/value	/jointset/knee_r/knee_flexion_r/value	/jointset/knee_r/knee_adduction_r/value	/jointset/knee_r/knee_rotation_r/value	/jointset/ankle_r/ankle_angle_r/value	/jointset/subtalar_r/subtalar_angle_r/value	/jointset/ground_pelvis/pelvis_tilt/speed	/jointset/ground_pelvis/pelvis_tx/speed	/jointset/ground_pelvis/pelvis_ty/speed	/jointset/hip_r/hip_flexion_r/speed	/jointset/hip_r/hip_adduction_r/speed	/jointset/hip_r/hip_rotation_r/speed	/jointset/back/lumbar_extension/speed	/jointset/patellofemoral_r/patellar_flexion_r/speed	/jointset/knee_r/knee_flexion_r/speed	/jointset/knee_r/knee_adduction_r/speed	/jointset/knee_r/knee_rotation_r/speed	/jointset/ankle_r/ankle_angle_r/speed	/jointset/subtalar_r/subtalar_angle_r/speed	/forceset/tau_hip_flexion_r	/forceset/tau_hip_adduction_r	/forceset/tau_hip_rotation_r	/forceset/tau_knee_flexion_r	/forceset/tau_ankle_angle_r	/forceset/tau_subtalar_angle_r	/forceset/tau_lumbar_extension	lambda_cid13_p0	lambda_cid14_p0	lambda_cid14_p1	lambda_cid14_p2	lambda_cid14_p3	lambda_cid14_p4	lambda_cid14_p5	/jointset/ground_pelvis/pelvis_tilt/accel	/jointset/ground_pelvis/pelvis_tx/accel	/jointset/ground_pelvis/pelvis_ty/accel	/jointset/hip_r/hip_flexion_r/accel	/jointset/hip_r/hip_adduction_r/accel	/jointset/hip_r/hip_rotation_r/accel	/jointset/back/lumbar_extension/accel	/jointset/patellofemoral_r/patellar_flexion_r/accel	/jointset/knee_r/knee_flexion_r/accel	/jointset/knee_r/knee_adduction_r/accel	/jointset/knee_r/knee_rotation_r/accel	/jointset/ankle_r/ankle_angle_r/accel	/jointset/subtalar_r/subtalar_angle_r/accel	gamma_cid13_p0	gamma_cid14_p0	gamma_cid14_p1	gamma_cid14_p2	gamma_cid14_p3	gamma_cid14_p4	gamma_cid14_p5
1	-0.2717694986478457	-0.02936045676050015	0.5665571473004234	1.63939592840559	-0.2432553222899601	-0.04198638231789563	-0.7853917886694602	1.682072015413013	1.682072015413022	-0.174532339666371	0.1745263849247383	0.4361857366149464	0.1653001943928181	0.06874486880428386	0.004391299201617593	0.01614815251219586	-0.1008530512400929	-0.001222548822403126	-0.002267723545888527	-8.778230203308968e-05	-0.01686364774570485	-0.01686364774570629	0.003459199554614897	-0.0003467105361270061	0.01533651857447785	0.005377105772308098	-0.366002791684835	0.00984062274700697	0.003499880754601933	-0.501731806343065	-0.002563361432279948	0.007169648569100384	0.3789056488590699	-0.03901301123416454	-53.82252610461652	-9.60483735129179	5.716525799803794	10.52817195265791	-791.719205596279	76.97901725047052	1.102602333984087	0.05273446244159585	2.227447572279223	-6.268028864477771	0.217394539400602	-0.9106983152673634	-0.01965592466527349	-5.795918173162832	-5.795918173162906	0.6307119611950477	-0.0314594152332664	-0.8038739459758024	0.03295850119540962	1.667587863986319e-09	2.005870177054253e-09	5.664995547192495e-09	1.196371906148682e-08	-1.672090795732519e-09	-5.393628621349308e-09	1.522071024834012e-08
1.01	-0.2710274740086056	-0.02931385961118468	0.5668298844361486	1.638074701272549	-0.2432565674600115	-0.04205127628607439	-0.7853929964506637	1.681613945634347	1.681613945634371	-0.1744630318128731	0.1745210845309565	0.4362989273991252	0.1653557480759368	0.07965924739389796	0.004936016127895473	0.03839727664805036	-0.1633908690071662	0.0009688171250221176	-0.01066376236829182	-0.0001499537236388142	-0.07474725288806891	-0.07474725288807268	0.01045673182511402	-0.0007020428624485064	0.007299701988279526	0.005722359424448327	-0.3653489031394573	0.009734199151361899	0.003605366891936707	-0.5022229073156019	-0.001839437215926265	0.007155756675063922	0.3785863998515969	-0.03901732226147379	-53.57860019181538	-9.574030955557623	5.718319573301311	10.27925815892926	-791.5992710994058	77.09780301123489	1.085735902331304	0.05652159315911654	2.223342230454035	-6.246430443901496	0.2193099332865012	-0.7969574415562717	0.001075279486283136	-5.784125052719146	-5.784125052719413	0.7424254241798388	-0.03585623349843713	-0.8038757296677902	0.03363114163782533	8.099984352627596e-09	1.092133412281809e-08	4.214323439459708e-08	5.440418327559153e-08	-7.614636648502978e-09	-1.443922769455763e-08	1.097052860524295e-07
1.02	-0.2701763295273022	-0.02926157903551892	0.5673250522924754	1.636128141519635	-0.2432360385084147	-0.04219871079764408	-0.7853947113394459	1.680577131130667	1.680577131130692	-0.1743221183237579	0.1745125735955043	0.4363316919745752	0.1654144187644589	0.09056883721877405	0.005527984471677344	0.06063429663257087	-0.2259195752174001	0.003132275507380562	-0.01877583222387846	-0.0001892039294142495	-0.1326125927482691	-0.1326125927482743	0.01778032666372005	-0.0009888188754378598	-0.0007487231869541944	0.006000506853164798	-0.364695014593974	0.009627775555682908	0.003710853029234849	-0.5027140082881415	-0.001115512999602892	0.007141864780949976	0.3782671508442188	-0.03903206752965264	-53.34073356151694	-9.541957424822382	5.717251739034065	10.03856517905134	-791.5706600543065	77.2368387007661	1.101644581036308	0.06218474594253869	2.225026742012442	-6.266206553109938	0.2118130263871484	-0.8539045219042252	-0.01507168149690626	-5.792265116730014	-5.792265116729914	0.6959244748163174	-0.01774815256670011	-0.8061956637825918	0.01953725651063399	1.736107574720921e-08	2.556310664683851e-08	8.783038335537704e-08	1.148451185171309e-07	-2.078736670230225e-08	-2.388434712578389e-08	2.413019834884106e-07
1.03	-0.2692159956629213	-0.02920317934669235	0.5680423901890314	1.63355667534348	-0.2431940021290204	-0.04242588326055246	-0.7853966225135184	1.678961956163836	1.678961956163846	-0.1741064460514659	0.1745015538742036	0.4362836625931056	0.1654754316697332	0.1015083845542326	0.006156140891667677	0.08281743031520605	-0.2883389343827545	0.005273481952644576	-0.02661841814020829	-0.000180771886962482	-0.1903996510967006	-0.1903996510967038	0.02539188167792247	-0.001207356667531611	-0.008883378026070313	0.006184620308273491	-0.3640617690533976	0.009588099420301878	0.003856610611042279	-0.5024014364125972	-0.00112559397356168	0.007216321908491074	0.3779026649576354	-0.0390600297512244	-53.30469011384121	-9.483909836002304	5.685838188270926	10.06156620186955	-791.0616149367986	77.33108882325598	1.091683657877424	0.06375234295549589	2.212572102945867	-6.224585492998366	0.2150679465590346	-0.7433867580612118	0.01063950069224259	-5.76851915218722	-5.768519152187115	0.799423449377082	-0.02269192186039475	-0.8210324983173972	0.01527201977154192	2.665103137552492e-08	4.026331089104526e-08	1.336115007867017e-07	1.754697320344605e-07	-3.403387414590798e-08	-3.333354329535727e-08	3.732773760430846e-07
